<svg width="150" height="151" viewBox="0 0 150 151" fill="none" xmlns="http://www.w3.org/2000/svg">
<path fill-rule="evenodd" clip-rule="evenodd" d="M127.94 61.3372L128.41 73.4372L149.41 75.3172L147.25 95.9372L139.86 98.6472C139.33 91.3372 134.31 84.2572 124.78 84.2572C114.94 84.2572 109.69 92.1072 109.85 99.8172H86.33C86.33 93.8172 83.25 87.8172 77.24 85.3872L107.98 85.1872L111.91 51.4872L139.38 52.1672L143.51 61.3372H127.94ZM103.34 81.1172L43.42 80.5072C43.42 80.5072 45.64 58.8072 46.56 48.8872C47.07 43.4272 50.86 40.1772 56.44 40.1772C64.62 40.1772 93.8 40.4572 99.23 40.4572C104.66 40.4572 107.77 43.3072 106.93 50.8772C105.72 61.9472 103.34 81.1172 103.34 81.1172ZM56.44 97.1172L41.59 94.2272L42.72 85.6172L65.02 85.4272C62.704 86.4661 60.6965 88.087 59.1929 90.1321C57.6893 92.1772 56.7409 94.5768 56.44 97.0972V97.1172ZM18.95 51.9572L20.72 47.9572L41.23 45.1572L40.43 53.0672L18.95 51.9572ZM39 67.0872L0 65.9572L1.14 62.5472L39.84 58.6272L39 67.0872ZM38.4 72.9472L37.57 81.0672L10 79.9572L11.52 75.9572L38.4 72.9472ZM71.24 88.0172C86 88.0172 86.37 110.747 72.24 110.747C55.53 110.747 56.72 88.0172 71.24 88.0172ZM71.72 104.127C77.6 104.127 77.44 94.6472 71.29 94.6472C65.14 94.6472 64.72 104.127 71.72 104.127ZM124.84 88.0172C139.6 88.0172 139.97 110.747 125.84 110.747C109.12 110.747 110.35 88.0172 124.83 88.0172H124.84ZM125.31 104.127C131.19 104.127 131.03 94.6472 124.88 94.6472C118.73 94.6472 118.33 104.127 125.3 104.127H125.31Z" fill="#4937D2"/>
</svg>
