<svg width="150" height="150" viewBox="0 0 150 150" fill="none" xmlns="http://www.w3.org/2000/svg">
<path fill-rule="evenodd" clip-rule="evenodd" d="M102.11 55.91L100.04 51.06L115.28 44.14L117.94 50.88L102.11 55.91ZM90.38 37.84L99.57 24.58L105.57 28.86L95.17 41.51L90.38 37.84ZM92.38 85.23H94.56L94.67 95.16L86.31 95.01V102.17L88.47 103.35L88.69 114.48L86.27 115.74V125.68H80.81L80.47 115.31L78.14 113.77L77.92 103.38L80.07 102.1L79.87 94.84L69.54 94.66V101.66L71.19 102.84L71.47 113.59L69.47 114.94L69.39 131.65L64.39 131.78L64.27 115.37L61.97 113.9L62.26 102.9L64.16 101.69V94.56L52.87 94.36L52.47 85.66L57.81 85.59C57.73 80.88 57.62 73.04 57.61 64.47C57.61 40.14 92.19 39.38 92.24 64.6C92.17 73.85 92.26 80.77 92.34 85.23H92.38ZM81.65 85.35H85.65V68.53L75.86 68.2L81.65 85.35ZM69.47 85.49L73.47 81.77L69.21 67.93L65.33 67.77L65.16 85.51L69.47 85.49ZM72.47 34.76L71.47 18.2L78.47 18L77.91 35.11L72.47 34.76ZM44.78 28.85L50.47 24.49L59.81 37.96L55.74 41.37L44.78 28.85ZM49.1 56.85L33 52.93L35.47 45.77L50.38 51.77L49.1 56.85Z" fill="#4937D2"/>
</svg>
