<svg width="150" height="151" viewBox="0 0 150 151" fill="none" xmlns="http://www.w3.org/2000/svg">
<path fill-rule="evenodd" clip-rule="evenodd" d="M100.41 70.3172L102.09 83.5472L91.5 84.0372L84.95 94.6373L73.67 88.6372L60.75 90.9772L57.35 80.2172L46.59 76.1572L48.66 63.6372L43 53.4672L53.94 46.6072L55.99 32.9472L68.13 36.3172L79.04 27.1772L85.75 37.3872L99.34 36.7672L99.11 50.9572L108 58.8772L100.41 70.3172ZM75.41 51.8372C62.76 51.8372 61.69 71.6672 76.3 71.6672C88.63 71.6672 88.3 51.8372 75.42 51.8372H75.41ZM73.63 92.5273L82.63 98.0872L67.73 123.447L59.82 113.947L46.05 113.667L54.85 96.5472L73.63 92.5273ZM107.63 110.067L92.18 111.987L85.36 124.167L77.83 114.237L91.25 91.3672L107.63 110.067Z" fill="#4937D2"/>
</svg>
