<svg width="50" height="40" viewBox="0 0 50 40" fill="none" xmlns="http://www.w3.org/2000/svg">
<path fill-rule="evenodd" clip-rule="evenodd" d="M45.6598 21.013L49.9215 22.4905L50 31.6557L46.0754 33.0409L45.6598 21.013ZM35.465 38.9233V32.3529L30.4414 32.2791V38.9602L27.6711 38.9833V32.2421L22.6337 32.1867V39.0433L19.6602 39.0664V32.1405L14.475 32.0667V39.1126L6.2702 39.1772C6.2702 39.1772 6.2702 24.0835 6.40872 19.1477C6.51953 14.3365 10.0379 9.64078 16.8667 9.65463L32.9486 9.75159C40.0037 9.80238 43.4805 14.7428 43.4204 19.6417C43.3604 24.5406 43.4204 38.8586 43.4204 38.8586L35.465 38.9233ZM17.0514 17.2823C11.2614 17.2823 10.9844 26.092 17.1484 26.092C22.7814 26.092 22.8137 17.2823 17.0514 17.2823ZM33.7104 18.6675C29.6334 18.6675 29.4395 24.8684 33.7797 24.8684C37.7413 24.8499 37.769 18.649 33.7104 18.649V18.6675ZM24.1758 0H27.1309L28.2667 7.96011L22.726 7.78927L24.1758 0ZM0.0554072 31.4341L0 22.4905L4.23862 21.0269L3.84615 32.9439L0.0554072 31.4341Z" fill="#4937D2"/>
</svg>
