<svg width="42" height="34" viewBox="0 0 42 34" fill="none" xmlns="http://www.w3.org/2000/svg">
<path fill-rule="evenodd" clip-rule="evenodd" d="M38.3542 18.5232L41.9341 19.7677L42 27.4878L38.7033 28.6546L38.3542 18.5232ZM29.7906 33.6095V28.0751L25.5708 28.0129V33.6406L23.2437 33.66V27.9818L19.0123 27.9351V33.7106L16.5145 33.73V27.8962L12.159 27.834V33.7689L5.26697 33.8234C5.26697 33.8234 5.26697 21.1095 5.38332 16.9519C5.47641 12.8994 8.4318 8.94405 14.1681 8.95571L27.6768 9.03739C33.6031 9.08017 36.5236 13.2416 36.4732 17.3681C36.4228 21.4946 36.4732 33.555 36.4732 33.555L29.7906 33.6095ZM14.3232 15.3807C9.4596 15.3807 9.22689 22.8013 14.4047 22.8013C19.1364 22.8013 19.1635 15.3807 14.3232 15.3807ZM28.3167 16.5475C24.892 16.5475 24.7292 21.7707 28.3749 21.7707C31.7027 21.7551 31.7259 16.5319 28.3167 16.5319V16.5475ZM20.3077 0.823364H22.7899L23.744 7.52837L19.0899 7.38447L20.3077 0.823364ZM0.046542 27.3011L0 19.7677L3.56044 18.5349L3.23077 28.5729L0.046542 27.3011Z" fill="#B4B4B4"/>
</svg>
