<svg width="150" height="151" viewBox="0 0 150 151" fill="none" xmlns="http://www.w3.org/2000/svg">
<path fill-rule="evenodd" clip-rule="evenodd" d="M45.4298 71.9803L44.8298 72.1803C38.6898 82.1803 46.8298 111.18 54.5598 118.44L82.9398 118.01L101.53 127.01L119.34 93.7403L99.8098 83.5303L92.9598 65.7403L82.9598 64.7403L100.06 35.1603C93.3198 24.7503 58.4598 21.4203 47.5898 26.5503L49.8698 39.9603C41.6998 42.2603 34.1698 46.5503 30.9998 50.7803L45.4298 71.9803ZM87.9898 71.9803L95.3198 88.7603L101.17 92.3603L90.6098 113.57L85.3798 112.03H58.7998C53.7198 105.64 48.4398 89.0303 51.0098 78.1603L79.0798 82.8003L81.3898 71.5903L87.9898 71.9803ZM64.8898 31.4503C70.9065 31.4852 76.9005 32.193 82.7598 33.5603C79.5898 37.5603 79.7598 44.9603 84.1998 49.7603L76.6298 63.1503L73.8798 74.9903L69.9498 74.2103L73.1698 41.2603C69.9121 39.2402 66.1425 38.1989 62.3098 38.2603C63.7693 36.2801 64.6613 33.9395 64.8898 31.4903V31.4503ZM57.8098 45.0703C57.5598 49.0703 60.5198 53.7903 65.2198 55.3803L64.7498 65.2603C60.7498 59.9803 52.4998 61.6603 49.8398 68.4603L44.0998 59.6503C47.7398 57.6503 50.0498 52.2203 48.4898 47.0603C51.4927 45.9872 54.6286 45.3311 57.8098 45.1103V45.0703Z" fill="#4937D2"/>
</svg>
