<svg width="150" height="151" viewBox="0 0 150 151" fill="none" xmlns="http://www.w3.org/2000/svg">
<path fill-rule="evenodd" clip-rule="evenodd" d="M119.05 79.1472L114.22 95.7772L100.22 94.8672C98.6527 97.1082 96.7891 99.1266 94.68 100.867L95.79 114.867L79 119.017L72 106.437C71.12 106.277 70.22 106.087 69.31 105.847C67.156 105.282 65.0442 104.567 62.99 103.707L50.5 111.767L38.5 99.2672L45.79 88.0272C44.2984 84.8787 43.3645 81.4952 43.03 78.0272L31 71.4172L35.55 56.0172L48.41 56.4472C50.4415 53.2801 53.01 50.4916 56 48.2072L55.4 35.9472L71 32.1772L76.81 42.3472C81.1797 42.7632 85.4435 43.9374 89.41 45.8172L100.88 38.8672L111.94 50.5172L104.61 62.2772C105.812 65.5776 106.487 69.0468 106.61 72.5572L119.05 79.1472ZM79.29 58.4072C58.05 52.8172 47.54 85.4072 72.09 91.8572C92.78 97.3472 100.94 64.1072 79.29 58.4072Z" fill="#4937D2"/>
</svg>
