<svg width="150" height="151" viewBox="0 0 150 151" fill="none" xmlns="http://www.w3.org/2000/svg">
<path fill-rule="evenodd" clip-rule="evenodd" d="M81.49 42.9372L72.17 42.6172V39.7272L68.17 38.8972V30.1772H85.88V39.3972L81.88 39.8972L81.49 42.9372ZM38 50.0272L47.76 41.0272L53.29 48.5272L44.51 56.3172L38 50.0272ZM76.54 46.1172C125.07 46.1172 124.76 120.257 77.37 120.257C25.48 120.257 27.88 46.1172 76.54 46.1172ZM77.17 114.437C117.12 114.437 117.38 51.9372 76.47 51.9372C35.4 51.9372 33.42 114.437 77.17 114.437ZM93.75 64.7972L96.2 66.6172C96.2 66.6172 82.37 85.5472 81.05 87.1872C75.41 94.1872 66.35 85.0472 73.2 79.4072C74.48 78.3472 93.75 64.7972 93.75 64.7972ZM49.75 80.3972L58.8 80.8572V86.8572L50.21 87.4672L49.75 80.3972ZM80.88 100.347L81.34 109.347L74.34 108.887L74.95 100.307L80.88 100.347ZM102.25 86.5372L93.67 85.9272V79.9272L102.67 79.4672L102.25 86.5372ZM73.99 66.6172L73.38 58.0372L80.38 57.5772L79.92 66.5772L73.99 66.6172Z" fill="#4937D2"/>
</svg>
